# This file uses meters as units for non-parametric coordinates.

mtllib DesertRock_04.mtl
g default
v -357.235291 0.000000 357.235291
v 357.235291 0.000000 357.235291
v -204.349365 898.310486 318.530823
v 357.235291 620.805420 357.235291
v -204.349365 898.310486 -318.530823
v 357.235291 620.805420 -357.235291
v -357.235291 0.000000 -357.235291
v 357.235291 0.000000 -357.235291
v -271.742859 447.357086 357.235291
v -357.235291 492.979675 -357.235291
v 357.235291 340.689209 -357.235291
v 271.742859 386.311890 357.235291
v -325.954468 691.680298 335.024384
v -325.954468 691.680298 -335.024384
v 344.094238 489.349487 -335.024384
v 344.094238 489.349487 335.024384
v -357.235291 215.614197 357.235291
v -357.235291 215.614197 -357.235291
v 357.235291 149.007034 -357.235291
v 357.235291 149.007034 357.235291
v -305.742371 356.209290 320.672729
v -305.742371 356.209290 -320.672729
v 335.603149 255.845459 -320.672729
v 335.603149 255.845459 320.672729
v -293.188416 0.000000 694.859802
v -256.654663 29.479420 726.001831
v 258.449402 30.233116 726.001831
v 293.959595 0.000000 694.836548
v 255.603485 188.112366 726.001831
v 297.900818 180.585266 690.518433
v -290.262238 93.519127 694.701416
v -250.856689 99.948624 726.001831
v 288.418518 257.658966 583.104797
v 332.975311 251.615845 539.312500
v -308.402222 205.137482 541.979065
v -267.161926 197.810867 583.104797
v 206.483521 347.394043 583.105042
v 229.402771 378.954102 552.535461
v -236.991699 297.713074 583.105042
v -255.298981 345.620178 551.299072
v 328.869781 685.017334 -287.420532
v -160.713654 936.773804 -254.081116
v -160.713654 936.773804 254.081116
v 328.869781 685.017334 287.420532
v 628.242432 620.805420 25.405571
v 628.242432 620.805420 -25.405571
v 596.997803 489.349487 -25.361477
v 596.925903 489.349487 25.449615
v 628.242432 0.000000 25.405571
v 628.242432 0.000000 -25.405571
v -550.679260 0.000000 -25.405571
v -550.679260 0.000000 25.405571
v -550.679260 215.614197 25.405571
v -550.679260 215.614197 -25.405571
v -545.842407 489.928223 96.029991
v -549.875793 492.979675 -98.920029
v -518.426331 691.680298 87.914154
v -518.407410 691.680298 -87.944458
v 623.937378 344.625275 24.100254
v 627.298218 340.689209 -26.561806
v 576.749878 255.845459 -25.405571
v 576.749878 255.845459 25.405571
v -345.041321 898.310486 -25.405571
v -345.041321 898.310486 25.405571
v -497.486847 356.209290 25.422262
v -497.508545 356.209290 -25.388882
v 628.242432 149.007034 25.405571
v 628.242432 149.007034 -25.405571
v -273.838135 926.169922 -25.405571
v -273.838135 926.169922 25.405571
v 549.297852 700.671021 -25.405573
v 549.297852 700.671021 25.405571
vt 0.388894 0.069104
vt 0.387718 0.097721
vt 0.324583 0.090475
vt 0.326538 0.057664
vt 0.466646 0.078246
vt 0.465160 0.105974
vt 0.388798 0.119749
vt 0.350081 0.108678
vt 0.317009 0.062868
vt 0.313803 0.091456
vt 0.476273 0.080823
vt 0.472808 0.108561
vt 0.461500 0.127238
vt 0.371542 0.143019
vt 0.332539 0.132636
vt 0.337962 0.109101
vt 0.540625 0.107545
vt 0.539789 0.136509
vt 0.474136 0.130495
vt 0.462728 0.144230
vt 0.325980 0.125181
vt 0.539960 0.158807
vt 0.469925 0.144688
vt 0.460378 0.167061
vt 0.383582 0.163345
vt 0.536364 0.178428
vt 0.471230 0.171335
vt 0.459888 0.185848
vt 0.382428 0.186170
vt 0.532626 0.210212
vt 0.465518 0.189474
vt 0.454549 0.200649
vt 0.391250 0.202418
vt 0.527223 0.239881
vt 0.463078 0.205077
vt 0.503801 0.247146
vt 0.819291 0.142676
vt 0.808606 0.100523
vt 0.855482 0.079006
vt 0.861738 0.095928
vt 0.744514 0.136714
vt 0.742316 0.096928
vt 0.863000 0.078512
vt 0.867275 0.090781
vt 0.823554 0.174146
vt 0.850667 0.127775
vt 0.732622 0.095960
vt 0.735475 0.135598
vt 0.747441 0.163707
vt 0.837619 0.193477
vt 0.882001 0.194762
vt 0.734629 0.162943
vt 0.661142 0.098760
vt 0.664583 0.139386
vt 0.745099 0.186231
vt 0.862649 0.123687
vt 0.870571 0.133441
vt 0.736410 0.187800
vt 0.660294 0.167304
vt 0.739447 0.222361
vt 0.799782 0.228304
vt 0.731188 0.222280
vt 0.667229 0.193308
vt 0.736448 0.270256
vt 0.788254 0.275438
vt 0.725567 0.271417
vt 0.667888 0.231043
vt 0.655566 0.274630
vt 0.185207 0.084378
vt 0.236530 0.107611
vt 0.221006 0.129805
vt 0.178828 0.110713
vt 0.182102 0.054251
vt 0.266788 0.092588
vt 0.177529 0.120570
vt 0.217905 0.132959
vt 0.268440 0.088938
vt 0.183754 0.050601
vt 0.208440 0.033055
vt 0.892289 0.285339
vt 0.967327 0.134492
vt 0.959436 0.128450
vt 0.377417 0.339992
vt 0.372124 0.335866
vt 0.379667 0.323036
vt 0.387840 0.328595
vt 0.332107 0.287512
vt 0.348748 0.289546
vt 0.435929 0.356256
vt 0.430020 0.339995
vt 0.882673 0.297197
vt 0.874251 0.317111
vt 0.953039 0.052091
vt 0.959215 0.081292
vt 0.970068 0.108721
vt 0.259763 0.056288
vt 0.876123 0.169698
vt 0.918267 0.269517
vn -0.389012 0.139922 -0.910545
vn 0.287295 0.122392 -0.949990
vn 0.101985 -0.930444 -0.351956
vn -0.155819 -0.914035 -0.374514
vn -0.355237 0.243996 -0.902371
vn 0.273275 0.053650 -0.960439
vn 0.287402 -0.069745 -0.955267
vn -0.343640 -0.055639 -0.937452
vn -0.339798 0.406339 0.848190
vn 0.334292 0.458976 0.823158
vn 0.327053 -0.018941 0.944816
vn -0.421626 0.204057 0.883512
vn -0.224151 0.409959 -0.884132
vn 0.276454 0.134941 -0.951506
vn 0.276436 0.134950 0.951510
vn -0.224161 0.409965 0.884127
vn -0.328250 -0.038190 -0.943819
vn 0.264626 0.015153 -0.964232
vn -0.206366 -0.975095 0.081252
vn -0.040767 -0.284273 0.957876
vn -0.107407 0.558398 0.822591
vn -0.951406 0.117542 0.284623
vn 0.220567 -0.971258 0.089492
vn 0.083112 -0.261544 0.961606
vn 0.951623 0.094695 0.292313
vn -0.036125 0.635013 0.771656
vn 0.942807 0.292713 0.159483
vn 0.022663 0.698824 0.714934
vn -0.165546 0.669594 0.724043
vn -0.893965 0.329854 0.303353
vn 0.193106 0.921425 0.337173
vn 0.027149 0.228975 0.973054
vn -0.088922 0.202174 0.975304
vn -0.239714 0.890822 0.385970
vn -0.197246 -0.976852 0.082786
vn 0.159734 -0.984150 0.077026
vn 0.900716 0.082961 0.426413
vn -0.899671 0.145828 0.411493
vn 0.832874 0.196250 0.517500
vn -0.868693 0.101225 0.484898
vn 0.282022 0.939549 -0.194196
vn 0.380772 0.890757 -0.248122
vn 0.380772 0.890757 0.248122
vn 0.282022 0.939549 0.194196
vn 0.815761 0.136034 0.562165
vn 0.815799 0.135911 -0.562140
vn 0.401961 0.900560 -0.165585
vn 0.401961 0.900560 0.165585
vn 0.789630 -0.118972 0.601938
vn 0.814926 -0.002314 -0.579560
vn 0.779413 -0.068802 0.622722
vn 0.822416 -0.050859 -0.566608
vn 0.230682 -0.959215 0.163382
vn 0.230682 -0.959215 -0.163382
vn 0.811249 0.143324 -0.566863
vn 0.811249 0.143324 0.566863
vn -0.290543 -0.945521 0.146884
vn -0.290543 -0.945521 -0.146884
vn -0.881951 0.139514 0.450221
vn -0.881953 0.139531 -0.450212
vn -0.893377 0.038157 0.447684
vn -0.901874 -0.037679 -0.430352
vn -0.863143 -0.084151 0.497899
vn -0.898529 -0.102977 -0.426662
vn -0.843975 0.321785 0.429139
vn -0.843008 0.394073 -0.366120
vn -0.693000 0.660430 0.289108
vn -0.692995 0.660429 -0.289121
vn 0.776898 0.138308 0.614248
vn 0.813637 -0.002746 -0.581367
vn 0.214113 0.973486 0.080507
vn 0.214113 0.973486 -0.080507
s 1
g DesertRock_04
usemtl initialShadingGroup
f 18/54/1 19/18/2 8/17/3 7/53/4
f 14/67/5 15/30/6 11/26/7 10/63/8
f 9/50/9 12/80/10 16/91/11 13/61/12
f 5/68/13 6/34/14 15/30/6 14/67/5
f 13/61/12 16/91/11 4/92/15 3/65/16
f 22/59/17 23/22/18 19/18/2 18/54/1
f 10/63/8 11/26/7 23/22/18 22/59/17
f 25/39/19 26/43/20 32/44/21 31/40/22
f 26/75/20 25/72/19 28/71/23 27/76/24
f 27/9/24 28/4/23 30/3/25 29/10/26
f 29/10/26 30/3/25 34/8/27 33/16/28
f 31/40/22 32/44/21 36/56/29 35/46/30
f 33/16/28 34/8/27 38/15/31 37/21/32
f 35/46/30 36/56/29 39/57/33 40/97/34
f 37/82/32 38/81/31 40/97/34 39/57/33
f 26/43/20 27/93/24 29/94/26 32/44/21
f 32/44/21 29/94/26 33/95/28 36/56/29
f 36/56/29 33/95/28 37/82/32 39/57/33
f 1/69/35 2/70/36 28/71/23 25/72/19
f 2/1/36 20/2/37 30/3/25 28/4/23
f 17/37/38 1/38/35 25/39/19 31/40/22
f 20/2/37 24/7/39 34/8/27 30/3/25
f 21/45/40 17/37/38 31/40/22 35/46/30
f 24/7/39 12/14/10 38/15/31 34/8/27
f 12/80/10 9/50/9 40/51/34 38/98/31
f 9/50/9 21/45/40 35/46/30 40/97/34
f 6/34/14 5/89/13 42/90/41 41/36/42
f 3/87/16 4/29/15 44/33/43 43/88/44
f 45/28/45 46/31/46 71/35/47 72/32/48
f 46/31/46 45/28/45 48/24/49 47/27/50
f 47/27/50 48/24/49 59/20/51 60/23/52
f 49/5/53 50/11/54 68/12/55 67/6/56
f 50/77/54 49/74/53 52/73/57 51/78/58
f 51/47/58 52/42/57 53/41/59 54/48/60
f 54/48/60 53/41/59 65/49/61 66/52/62
f 55/55/63 56/58/64 66/52/62 65/49/61
f 56/58/64 55/55/63 57/60/65 58/62/66
f 58/62/66 57/60/65 64/64/67 63/66/68
f 60/23/52 59/20/51 62/13/69 61/19/70
f 61/19/70 62/13/69 67/6/56 68/12/55
f 63/83/68 64/84/67 70/85/71 69/86/72
f 69/86/72 70/85/71 72/32/48 71/35/47
f 69/86/72 71/35/47 41/36/42 42/90/41
f 7/79/4 8/96/3 50/77/54 51/78/58
f 68/12/55 50/11/54 8/17/3 19/18/2
f 7/53/4 51/47/58 54/48/60 18/54/1
f 43/88/44 44/33/43 72/32/48 70/85/71
f 2/1/36 49/5/53 67/6/56 20/2/37
f 52/73/57 49/74/53 2/70/36 1/69/35
f 53/41/59 52/42/57 1/38/35 17/37/38
f 57/60/65 55/55/63 9/50/9 13/61/12
f 10/63/8 56/58/64 58/62/66 14/67/5
f 47/27/50 60/23/52 11/26/7 15/30/6
f 12/14/10 59/20/51 48/24/49 16/25/11
f 64/64/67 57/60/65 13/61/12 3/65/16
f 14/67/5 58/62/66 63/66/68 5/68/13
f 46/31/46 47/27/50 15/30/6 6/34/14
f 16/25/11 48/24/49 45/28/45 4/29/15
f 65/49/61 53/41/59 17/37/38 21/45/40
f 18/54/1 54/48/60 66/52/62 22/59/17
f 61/19/70 68/12/55 19/18/2 23/22/18
f 20/2/37 67/6/56 62/13/69 24/7/39
f 55/55/63 65/49/61 21/45/40 9/50/9
f 22/59/17 66/52/62 56/58/64 10/63/8
f 60/23/52 61/19/70 23/22/18 11/26/7
f 24/7/39 62/13/69 59/20/51 12/14/10
f 46/31/46 6/34/14 41/36/42 71/35/47
f 5/89/13 63/83/68 69/86/72 42/90/41
f 4/29/15 45/28/45 72/32/48 44/33/43
f 64/84/67 3/87/16 43/88/44 70/85/71
