# This file uses meters as units for non-parametric coordinates.

mtllib Mountain_02.mtl
g default
v 843.174988 -25.422058 1057.862427
v 1057.835938 -19.921875 -843.394836
v 72.311462 1838.941406 106.729118
v 31.941612 1913.352783 -25.461559
v -31.941612 1913.352783 25.461559
v -25.461559 1913.352783 -31.941612
v -1058.031982 -13.511414 843.276001
v -843.370972 -8.011292 -1057.981323
v 1214.082397 -23.954346 33.209999
v 90.903664 1838.941406 83.920753
v -37.037388 1913.352783 -7.407937
v -1191.140381 -8.886108 -238.263916
v -141.048950 -20.163391 1202.000488
v 48.764587 1838.941406 120.264374
v 0.199022 1913.352783 -3.204443
v 4.060961 1913.352783 -37.415218
v 130.519348 -13.205139 -1203.285767
v 4.962668 -16.456787 -81.515800
v -525.015930 1024.242432 349.523987
v -63.972809 1116.554199 545.657715
v 551.173279 1116.554199 15.113686
v 464.861725 1116.554199 -370.554413
v 59.281895 1116.554199 -546.187195
v -370.554382 1116.554199 -464.861694
v -440.498810 1116.554199 -96.832840
v -1289.543945 1116.554199 -192.678680
v -1939.984985 -4.194763 -322.784912
v -1119.426514 1116.554199 -549.399353
v -1434.893799 -5.019287 -923.955811
v -1213.733887 1116.554199 286.016724
v -1604.785034 -9.372375 580.775024
v -759.003906 1859.524414 -170.381897
v -773.008301 1859.524414 -96.694077
v -908.945068 1859.524414 -187.308243
v -943.006287 1859.524414 -115.884583
v -777.886353 1859.524414 -3.112480
v -927.827515 1859.524414 -20.038834
v 791.076904 892.623413 972.770508
v 885.214783 864.078003 407.027557
v 454.053925 1914.214722 352.937866
v 453.697968 1913.352783 549.527466
v 270.068726 1116.554199 937.571594
v 262.668427 1912.490723 513.613708
v 279.448547 -24.434509 1709.894287
v 1263.672241 -29.693115 1565.756104
v 1634.579834 -28.225464 541.103577
v 222.257462 2279.917969 283.230164
v 243.706055 2280.490967 263.784180
v 286.173584 2290.646240 352.334717
v 305.698639 2293.644287 329.341553
v 201.345184 2280.445801 299.866821
v 263.337891 2293.599121 365.424103
v -845.700867 1884.504150 -5.755760
v -867.579041 1106.103271 379.337311
v -1329.756470 -11.601013 754.121216
v -1628.915405 -6.130371 -291.544861
v -1124.180908 -6.464600 -1029.839355
v -757.465881 1106.560425 -561.939331
v -825.009644 1883.638306 -182.953705
v -850.124634 1886.472046 -104.033020
vt 0.642065 0.256564
vt 0.745340 0.241375
vt 0.636845 0.418989
vt 0.602831 0.415414
vt 0.698677 0.014586
vt 0.864883 0.060624
vt 0.597211 0.489633
vt 0.592639 0.488613
vt 0.522314 0.419727
vt 0.549349 0.271644
vt 0.586405 0.039298
vt 0.576527 0.488436
vt 0.470842 0.267959
vt 0.500820 0.434250
vt 0.411066 0.031963
vt 0.400773 0.250257
vt 0.359925 0.028037
vt 0.380141 0.401016
vt 0.367147 0.402231
vt 0.337041 0.245042
vt 0.301501 0.029453
vt 0.352839 0.395835
vt 0.703152 0.789397
vt 0.793786 0.547751
vt 0.840606 0.548776
vt 0.773896 0.759554
vt 0.648957 0.529848
vt 0.623841 0.759750
vt 0.898824 0.554240
vt 0.836812 0.741946
vt 0.863805 0.884784
vt 0.852650 0.890024
vt 0.559830 0.928317
vt 0.555216 0.925647
vt 0.491974 0.510783
vt 0.543413 0.749739
vt 0.873323 0.872422
vt 0.549603 0.924768
vt 0.441263 0.907375
vt 0.523158 0.919051
vt 0.446446 0.975234
vt 0.430914 0.970841
vt 0.475911 0.770982
vt 0.376592 0.739926
vt 0.521844 0.925180
vt 0.449041 0.979386
vt 0.358959 0.569556
vt 0.243450 0.588072
vt 0.521770 0.929902
vt 0.451496 0.983241
vt 0.522918 0.928708
vt 0.546594 0.930570
vt 0.547555 0.937475
vt 0.542981 0.937428
vt 0.522300 0.924128
vt 0.552348 0.930602
vt 0.551252 0.935738
vt 0.225303 0.752705
vt 0.272728 0.814030
vt 0.193864 0.847882
vt 0.156179 0.764065
vt 0.245152 0.748290
vt 0.301471 0.801390
vt 0.281226 0.876803
vt 0.226927 0.921062
vt 0.115731 0.884777
vt 0.101205 0.808628
vt 0.268284 0.748905
vt 0.321607 0.792003
vt 0.297372 0.864883
vt 0.157128 0.932725
vt 0.071561 0.868981
vt 0.057035 0.792831
vt 0.112009 0.748268
vt 0.312544 0.847121
vt 0.351820 0.428917
vt 0.340381 0.436229
vt 0.333269 0.425503
vt 0.344854 0.416116
vt 0.325839 0.411200
vt 0.336437 0.401810
vt 0.366917 0.421145
vt 0.361283 0.409399
vt 0.444999 0.980344
vt 0.429037 0.975688
vt 0.442890 0.984834
vt 0.428902 0.980138
vt 0.811256 0.322506
vt 0.657147 0.447719
vt 0.983668 0.209216
vt 0.601014 0.493502
vt 0.915158 0.472377
vt 0.909611 0.472377
vt 0.902075 0.334653
vt 0.982823 0.334653
vt 0.905173 0.472377
vt 0.837508 0.334653
vt 0.135903 0.076754
vt 0.256345 0.277166
vt 0.200989 0.321464
vt 0.036706 0.176172
vt 0.103779 0.328679
vt 0.168346 0.328679
vt 0.110236 0.457098
vt 0.097308 0.457098
vt 0.023031 0.328679
vt 0.081141 0.457098
vn 0.528125 0.624494 0.575406
vn 0.833116 0.532277 -0.150330
vn 0.859164 0.373176 -0.350110
vn 0.662909 0.491021 0.565199
vn -0.627744 0.436475 0.644536
vn 0.256995 0.911660 0.320670
vn -0.874808 0.472054 -0.108976
vn -0.750320 0.555224 0.358813
vn 0.043656 0.993784 0.102412
vn -0.250410 0.538210 0.804752
vn -0.177349 -0.778125 0.602552
vn -0.005863 -0.999977 -0.003555
vn -0.005863 -0.999977 -0.003555
vn -0.416259 -0.740420 0.527737
vn 0.098332 0.516433 -0.850663
vn -0.065388 0.535149 -0.842223
vn -0.543054 0.569998 -0.616599
vn 0.095844 0.545912 -0.832343
vn -0.553039 0.459150 0.695219
vn 0.805882 0.470065 -0.359991
vn 0.632510 0.552264 -0.543079
vn 0.589443 0.579480 -0.562814
vn 0.763134 0.445070 -0.468550
vn -0.045980 -0.687732 -0.724507
vn 0.091138 -0.539390 -0.837110
vn -0.366716 0.498167 0.785716
vn -0.533896 0.397311 0.746391
vn -0.482270 0.671196 -0.562949
vn 0.583023 -0.776514 -0.238978
vn 0.636957 -0.532479 -0.557451
vn -0.005863 -0.999977 -0.003555
vn -0.227682 -0.047943 0.972555
vn 0.665286 0.087407 0.741454
vn 0.994067 -0.108339 -0.009697
vn -0.962385 0.247711 -0.111603
vn -0.883954 0.457885 -0.094689
vn -0.538411 0.452512 -0.710877
vn -0.622776 0.148429 -0.768192
vn -0.743917 0.449975 0.494074
vn -0.844293 0.092979 0.527754
vn 0.890086 0.413220 0.192341
vn 0.667424 0.552198 -0.499622
vn 0.094868 0.477289 -0.873611
vn -0.033294 0.999424 -0.006527
vn -0.056286 -0.233712 -0.970675
vn 0.024367 0.413910 -0.909992
vn -0.005864 -0.999977 -0.003555
vn 0.639599 0.475357 0.604110
vn -0.040853 0.482114 0.875155
vn -0.229591 -0.412278 0.881655
vn -0.130241 0.411239 0.902175
vn -0.888976 0.447897 -0.095450
vn -0.459013 0.501299 -0.733489
vn -0.672022 0.499315 0.546875
vn 0.517762 0.204436 -0.830740
vn -0.527615 0.585253 -0.615712
vn 0.521435 0.572004 0.633180
vn 0.754891 0.264198 -0.600282
vn -0.888223 0.193824 0.416524
vn -0.703715 0.251624 0.664433
s 1
g Mountain_02
usemtl initialShadingGroup
f 38/2/1 39/88/2 40/89/3 41/3/4
f 14/51/5 15/52/6 11/53/7 5/54/8
f 5/92/8 11/93/7 25/94/9 19/95/10
f 7/58/11 12/59/12 18/60/13 13/61/14
f 23/28/15 24/23/16 6/33/17 16/34/18
f 19/13/10 20/10/19 14/9/5 5/14/8
f 21/43/20 22/36/21 4/38/22 10/40/23
f 11/53/7 15/52/6 16/56/18 6/57/17
f 25/94/9 11/93/7 6/96/17 24/97/16
f 18/60/13 12/59/12 8/64/24 17/65/25
f 42/1/26 38/2/1 41/3/4 43/4/27
f 3/55/28 10/40/23 15/52/6 14/51/5
f 16/56/18 15/52/6 10/40/23 4/38/22
f 22/36/21 23/28/15 16/34/18 4/38/22
f 9/66/29 18/60/13 17/65/25 2/71/30
f 13/61/14 18/60/13 9/66/29 1/67/31
f 7/15/11 13/11/14 20/10/19 19/13/10
f 44/5/32 45/6/33 38/2/1 42/1/26
f 45/6/33 46/90/34 39/88/2 38/2/1
f 9/47/29 2/35/30 22/36/21 21/43/20
f 2/35/30 17/27/25 23/28/15 22/36/21
f 17/27/25 8/24/24 24/23/16 23/28/15
f 27/98/35 26/99/36 28/100/37 29/101/38
f 30/20/39 26/99/36 27/98/35 31/21/40
f 33/76/41 32/77/42 59/78/43 60/79/44
f 24/23/16 8/24/24 57/25/45 58/26/46
f 8/64/24 12/59/12 56/63/47 57/70/45
f 36/82/48 33/76/41 60/79/44 53/83/49
f 12/59/12 7/58/11 55/62/50 56/63/47
f 7/15/11 19/13/10 54/16/51 55/17/50
f 25/102/9 24/103/16 32/104/42 33/105/41
f 24/23/16 58/26/46 59/31/43 32/32/42
f 28/100/37 26/99/36 35/81/52 34/80/53
f 19/106/10 25/102/9 33/105/41 36/107/48
f 26/99/36 30/20/39 37/22/54 35/81/52
f 54/16/51 19/13/10 36/18/48 53/19/49
f 21/43/20 10/40/23 40/39/3 39/44/2
f 48/41/55 47/84/56 49/85/57 50/42/58
f 47/84/56 51/86/59 52/87/60 49/85/57
f 14/9/5 20/10/19 42/1/26 43/4/27
f 13/61/14 1/67/31 45/73/33 44/74/32
f 20/10/19 13/11/14 44/5/32 42/1/26
f 1/67/31 9/66/29 46/72/34 45/73/33
f 9/47/29 21/43/20 39/44/2 46/48/34
f 10/40/23 3/45/28 47/46/56 48/41/55
f 41/3/4 40/89/3 50/91/58 49/7/57
f 40/39/3 10/40/23 48/41/55 50/42/58
f 3/45/28 14/49/5 51/50/59 47/46/56
f 14/9/5 43/4/27 52/8/60 51/12/59
f 43/4/27 41/3/4 49/7/57 52/8/60
f 30/20/39 54/16/51 53/19/49 37/22/54
f 55/17/50 54/16/51 30/20/39 31/21/40
f 56/63/47 55/62/50 31/68/40 27/69/35
f 57/70/45 56/63/47 27/69/35 29/75/38
f 58/26/46 57/25/45 29/29/38 28/30/37
f 59/31/43 58/26/46 28/30/37 34/37/53
f 60/79/44 59/78/43 34/80/53 35/81/52
f 53/83/49 60/79/44 35/81/52 37/22/54
