# This file uses meters as units for non-parametric coordinates.

mtllib Rock_02.mtl
g default
v -130.719452 895.956604 84.860031
v -83.615494 895.956604 -181.746628
v -101.167152 0.000000 14.979462
v -101.167152 12.682404 41.494987
v -101.167152 43.730743 53.284286
v 51.880108 41.499542 53.201630
v 50.479488 12.036041 42.870358
v 49.907337 0.000000 19.806404
v 100.837807 41.882568 53.556000
v 121.313217 12.154541 42.896297
v 166.403305 0.000000 19.559973
v 109.871147 837.389099 82.690048
v 124.554230 878.637207 70.265007
v 130.719452 895.956604 37.675251
v 58.427734 983.145264 46.987564
v 78.782593 1007.394409 28.482613
v 86.387581 1016.454529 3.210658
v -97.256996 986.910461 45.352089
v -89.313591 1008.501038 28.687275
v -86.387581 1016.454529 5.452043
v -180.205261 0.000000 -50.334858
v -158.780258 10.587982 -21.620878
v -146.738464 39.942841 3.567832
v -244.997025 860.079651 -11.247376
v -255.854324 869.909973 -33.736794
v -259.587219 873.289795 -57.868694
v -101.167152 16.604187 -121.410797
v -101.167152 4.721222 -116.237846
v -101.167152 0.000000 -106.150940
v 50.689072 16.444580 -121.392204
v 50.129623 4.676117 -116.266609
v 49.907337 0.000000 -106.271446
v 120.189156 16.264832 -77.300415
v 127.101135 4.425476 -69.042885
v 166.403305 0.000000 -58.146210
v 122.192612 872.002686 -221.022171
v 128.143341 888.719727 -217.125793
v 130.719452 895.956604 -204.471039
v 44.162777 1094.059204 -175.219589
v 55.924965 1103.998413 -168.660416
v 61.235035 1102.456909 -158.686798
v -89.779465 1145.916138 -175.475143
v -87.458473 1156.413818 -168.407120
v -86.387581 1154.990601 -157.763168
v -154.338791 15.879303 -88.285683
v -160.749725 4.290985 -79.681763
v -180.205261 0.000000 -68.761497
v -252.992325 869.833008 -114.529053
v -257.901703 872.406311 -105.617401
v -259.587219 873.289795 -95.829857
v 231.013779 742.258667 50.431007
v 235.180954 726.044556 50.667019
v 217.517929 738.806885 73.798019
v 221.769852 722.614380 73.602890
v 190.101593 714.280579 81.760292
v 185.470963 730.800781 82.176819
v -302.893585 744.172241 -41.790882
v -300.925354 760.928955 -42.784340
v -296.323944 748.824341 -17.833008
v -294.117920 767.064575 -19.057203
v -276.247925 781.522217 -1.366338
v -278.586426 763.299011 -0.218860
v 222.933487 734.052002 -99.306419
v 226.632111 718.652588 -93.687294
v 229.400986 739.346680 -89.709702
v 232.938049 723.751038 -84.158394
v 235.130356 725.367920 -73.658691
v 231.550461 741.436401 -79.191345
v -292.614532 750.928589 -130.025238
v -290.641388 769.672974 -129.336395
v -300.096313 745.622314 -122.764359
v -297.900970 764.023132 -121.953430
v -300.918060 760.948608 -112.154678
v -302.891510 744.154724 -112.828514
v 107.764366 565.425110 -232.956238
v 106.688980 548.377869 -232.050507
v -130.719437 569.216003 -233.510162
v -130.719437 551.876282 -232.454651
v -130.719452 673.293091 119.708893
v -130.719452 656.310791 119.079674
v 105.499565 617.540588 117.643204
v 104.779350 600.673950 117.018280
vt 0.853293 0.677984
vt 0.865178 0.684523
vt 0.864422 0.730515
vt 0.853328 0.726968
vt 0.870315 0.620626
vt 0.879045 0.620939
vt 0.960135 0.689323
vt 0.917528 0.773981
vt 0.879595 0.615780
vt 0.870915 0.615693
vt 0.921764 0.619925
vt 0.966129 0.687171
vt 0.921276 0.775872
vt 0.920643 0.613842
vt 0.813192 0.363266
vt 0.832111 0.356768
vt 0.925235 0.619020
vt 0.860985 0.351479
vt 0.924142 0.612956
vt 0.971210 0.680283
vt 0.929097 0.617135
vt 0.927572 0.610711
vt 0.982285 0.545347
vt 0.980595 0.538505
vt 0.876084 0.348609
vt 0.881136 0.351871
vt 0.909655 0.342252
vt 0.907405 0.338136
vt 0.654871 0.798849
vt 0.651049 0.795494
vt 0.662548 0.685357
vt 0.666613 0.685460
vt 0.654980 0.650357
vt 0.657633 0.647965
vt 0.659504 0.798391
vt 0.670479 0.685476
vt 0.653739 0.643697
vt 0.657172 0.641948
vt 0.660801 0.646785
vt 0.736694 0.747753
vt 0.684325 0.683055
vt 0.592549 0.583477
vt 0.592878 0.577134
vt 0.653797 0.379421
vt 0.658317 0.375338
vt 0.660434 0.641378
vt 0.682990 0.645411
vt 0.747410 0.741344
vt 0.693067 0.681136
vt 0.629859 0.377608
vt 0.667139 0.374566
vt 0.682815 0.639971
vt 0.691138 0.646778
vt 0.754913 0.730996
vt 0.702069 0.678347
vt 0.674310 0.374168
vt 0.690683 0.641032
vt 0.699119 0.651545
vt 0.754219 0.693922
vt 0.688670 0.375942
vt 0.698964 0.645353
vt 0.755667 0.612808
vt 0.700546 0.385616
vt 0.754955 0.606643
vt 0.724004 0.373089
vt 0.726887 0.384838
vt 0.740649 0.837414
vt 0.734214 0.831536
vt 0.768876 0.795942
vt 0.774601 0.800916
vt 0.712560 0.837405
vt 0.700842 0.836239
vt 0.704817 0.804684
vt 0.738278 0.767993
vt 0.794641 0.767615
vt 0.790309 0.783731
vt 0.696370 0.832154
vt 0.702369 0.802448
vt 0.735902 0.765723
vt 0.775783 0.750389
vt 0.698032 0.825012
vt 0.824397 0.778242
vt 0.816308 0.772842
vt 0.889494 0.826271
vt 0.838617 0.723601
vt 0.806962 0.768273
vt 0.919814 0.777532
vt 0.892736 0.828582
vt 0.784360 0.365273
vt 0.786372 0.376787
vt 0.805622 0.375242
vt 0.826145 0.578677
vt 0.860326 0.614118
vt 0.827102 0.584685
vt 0.859738 0.620353
vt 0.843505 0.665537
vt 0.527083 0.714927
vt 0.603174 0.711559
vt 0.590604 0.794342
vt 0.508416 0.583281
vt 0.587757 0.799946
vt 0.651615 0.800203
vt 0.527646 0.722253
vt 0.508766 0.575113
vt 0.573170 0.364913
vt 0.631232 0.373027
vt 0.574649 0.360370
vt 0.904778 0.335253
vt 0.907606 0.338055
vn -0.320384 -0.127821 0.938624
vn -0.212996 -0.601083 0.770281
vn -0.006554 -0.656752 0.754078
vn 0.068534 -0.120400 0.990357
vn -0.037722 -0.993677 0.105747
vn -0.001244 -0.996460 0.084055
vn -0.177308 0.239235 0.954635
vn 0.072479 0.187411 0.979604
vn 0.064007 0.358028 0.931514
vn -0.146030 0.422193 0.894667
vn -0.635542 0.267907 0.724095
vn -0.805762 -0.198917 0.557834
vn -0.932569 -0.309251 0.186221
vn -0.702694 -0.125779 0.700286
vn 0.497879 -0.188920 0.846419
vn 0.314149 -0.106169 0.943419
vn 0.949971 -0.235383 0.205303
vn 0.505718 0.409447 0.759343
vn 0.341747 0.705512 0.620856
vn 0.887645 0.456885 0.057805
vn 0.748242 0.612311 0.255360
vn -0.357586 0.784240 0.507051
vn -0.343432 0.796885 0.497021
vn -0.749941 0.581259 0.315795
vn -0.765207 0.559512 0.318441
vn 0.051299 0.092454 -0.994395
vn -0.184882 0.114433 -0.976076
vn -0.222414 0.134111 -0.965684
vn -0.066143 0.119743 -0.990599
vn -0.398864 0.192698 -0.896535
vn 0.599069 0.722946 0.344188
vn -0.236940 0.829159 0.506315
vn -0.008378 -0.998971 -0.044575
vn 0.008921 -0.999045 -0.042772
vn 0.947954 -0.267446 -0.172790
vn 0.908748 0.415842 -0.035399
vn -0.928247 -0.323507 -0.183580
vn -0.780761 0.546580 0.302759
vn -0.289272 -0.205250 -0.934984
vn -0.126650 -0.632051 -0.764508
vn -0.637734 -0.197140 -0.744602
vn -0.635289 -0.175174 -0.752145
vn 0.157167 -0.576620 -0.801753
vn 0.348203 -0.208113 -0.914026
vn 0.521616 -0.095502 -0.847819
vn 0.755533 -0.163045 -0.634497
vn 0.600686 0.256218 -0.757317
vn 0.500956 0.602293 -0.621520
vn -0.513633 0.751173 -0.414633
vn -0.862966 0.446382 -0.236710
vn 0.845391 0.530418 0.063018
vn 0.971519 -0.096084 0.216607
vn 0.982481 -0.088413 -0.164059
vn 0.848274 0.529424 -0.011885
vn 0.576729 0.380698 0.722808
vn 0.513533 -0.094235 0.852880
vn 0.234297 0.148060 0.960824
vn 0.320744 -0.084412 0.943397
vn 0.068579 0.133610 0.988658
vn 0.106000 -0.109076 0.988366
vn -0.963590 -0.157092 0.216371
vn -0.947853 0.313662 0.056489
vn -0.950191 0.310348 -0.028639
vn -0.961599 -0.165006 -0.219317
vn -0.797357 -0.140723 0.586872
vn -0.885161 0.331014 0.326987
vn -0.697394 -0.108446 0.708436
vn -0.623475 0.188089 0.758882
vn -0.397296 -0.117939 0.910080
vn -0.115574 0.152945 0.981453
vn 0.766545 -0.017433 -0.641954
vn 0.763247 -0.148818 -0.628734
vn 0.439704 -0.197296 -0.876205
vn 0.086300 0.081592 -0.992923
vn 0.868800 0.186662 -0.458633
vn 0.543588 -0.085441 -0.834992
vn -0.626478 -0.149005 -0.765064
vn -0.378551 0.211890 -0.901000
vn -0.167275 0.121491 -0.978396
vn -0.355668 -0.195169 -0.914008
vn -0.655578 -0.157718 -0.738473
vn -0.882323 0.331537 -0.334051
s 1
g Rock_02
usemtl initialShadingGroup
f 5/66/1 4/65/2 7/89/3 6/90/4
f 4/67/2 3/68/5 8/69/6 7/70/3
f 1/59/7 12/96/8 15/85/9 18/54/10
f 1/59/7 18/54/10 24/55/11
f 3/68/5 4/67/2 22/71/12 21/72/13
f 4/65/2 5/66/1 23/63/14 22/60/12
f 6/90/4 7/89/3 10/15/15 9/91/16
f 7/70/3 8/69/6 11/75/17 10/76/15
f 12/96/8 13/1/18 16/4/19 15/85/9
f 13/1/18 14/2/20 17/3/21 16/4/19
f 15/85/9 16/4/19 19/83/22 18/86/10
f 16/4/19 17/3/21 20/82/23 19/83/22
f 18/54/10 19/48/22 25/49/24 24/55/11
f 19/48/22 20/40/23 26/41/25 25/49/24
f 36/97/26 2/98/27 42/30/28 39/99/29
f 42/30/28 2/98/27 48/31/30
f 20/82/23 17/3/21 41/8/31 44/84/32
f 29/73/33 32/74/34 8/69/6 3/68/5
f 8/69/6 32/74/34 35/80/35 11/75/17
f 14/2/20 38/7/36 41/8/31 17/3/21
f 29/73/33 3/68/5 21/72/13 47/77/37
f 20/40/23 44/35/32 50/36/38 26/41/25
f 27/50/39 28/106/40 46/45/41 45/44/42
f 28/78/40 29/73/33 47/77/37 46/81/41
f 29/73/33 28/78/40 31/79/43 32/74/34
f 28/106/40 27/50/39 30/105/44 31/107/43
f 32/108/34 31/109/43 34/25/45 35/18/35
f 31/28/43 30/27/44 33/26/46 34/25/45
f 38/7/36 37/12/47 40/13/48 41/8/31
f 37/103/47 36/97/26 39/99/29 40/101/48
f 41/8/31 40/87/48 43/88/49 44/84/32
f 40/101/48 39/99/29 42/30/28 43/102/49
f 44/35/32 43/29/49 49/32/50 50/36/38
f 43/29/49 42/30/28 48/31/30 49/32/50
f 51/6/51 52/9/52 67/14/53 68/11/54
f 52/9/52 51/6/51 53/5/55 54/10/56
f 54/10/56 53/5/55 56/95/57 55/93/58
f 55/93/58 56/95/57 81/94/59 82/92/60
f 57/52/61 58/47/62 73/39/63 74/46/64
f 58/47/62 57/52/61 59/57/65 60/53/66
f 60/53/66 59/57/65 62/61/67 61/58/68
f 61/58/68 62/61/67 80/64/69 79/62/70
f 63/21/71 64/22/72 76/24/73 75/23/74
f 64/22/72 63/21/71 65/17/75 66/19/76
f 66/19/76 65/17/75 68/11/54 67/14/53
f 69/37/77 70/33/78 77/42/79 78/43/80
f 70/33/78 69/37/77 71/38/81 72/34/82
f 72/34/82 71/38/81 74/46/64 73/39/63
f 75/100/74 76/104/73 78/43/80 77/42/79
f 79/62/70 80/64/69 82/92/60 81/94/59
f 14/2/20 13/1/18 53/5/55 51/6/51
f 13/1/18 12/96/8 56/95/57 53/5/55
f 79/62/70 81/94/59 12/96/8 1/59/7
f 12/96/8 81/94/59 56/95/57
f 61/58/68 79/62/70 1/59/7 24/55/11
f 9/91/16 10/15/15 54/10/56 55/93/58
f 10/15/15 11/16/17 52/9/52 54/10/56
f 21/56/13 22/60/12 59/57/65 57/52/61
f 22/60/12 23/63/14 62/61/67 59/57/65
f 58/47/62 60/53/66 25/49/24 26/41/25
f 60/53/66 61/58/68 24/55/11 25/49/24
f 2/98/27 36/97/26 75/100/74 77/42/79
f 63/21/71 75/23/74 36/20/26
f 2/98/27 77/42/79 70/33/78 48/31/30
f 11/16/17 35/18/35 67/14/53 52/9/52
f 47/51/37 21/56/13 57/52/61 74/46/64
f 38/7/36 14/2/20 51/6/51 68/11/54
f 73/39/63 58/47/62 26/41/25 50/36/38
f 36/20/26 37/12/47 65/17/75 63/21/71
f 37/12/47 38/7/36 68/11/54 65/17/75
f 35/18/35 34/25/45 66/19/76 67/14/53
f 34/25/45 33/26/46 64/22/72 66/19/76
f 45/44/42 46/45/41 71/38/81 69/37/77
f 46/45/41 47/51/37 74/46/64 71/38/81
f 70/33/78 72/34/82 49/32/50 48/31/30
f 72/34/82 73/39/63 50/36/38 49/32/50
f 30/27/44 76/24/73 64/22/72 33/26/46
f 78/43/80 76/104/73 30/105/44 27/50/39
f 69/37/77 78/43/80 27/50/39 45/44/42
f 5/66/1 80/64/69 62/61/67 23/63/14
f 5/66/1 6/90/4 82/92/60 80/64/69
f 55/93/58 82/92/60 6/90/4 9/91/16
